<?xml version="1.0" standalone="no"?>
<!DOCTYPE svg PUBLIC "-//W3C//DTD SVG 20010904//EN"
 "http://www.w3.org/TR/2001/REC-SVG-20010904/DTD/svg10.dtd">
<svg version="1.0" xmlns="http://www.w3.org/2000/svg"
 width="417.000000pt" height="417.000000pt" viewBox="0 0 417.000000 417.000000"
 preserveAspectRatio="xMidYMid meet">
<metadata>
Created by potrace 1.11, written by Peter Selinger 2001-2013
</metadata>
<g transform="translate(0.000000,417.000000) scale(0.100000,-0.100000)"
fill="#000000" stroke="none">
<path d="M793 2890 c-40 -20 -73 -46 -97 -77 -20 -25 -36 -50 -36 -54 0 -4
-15 -40 -34 -81 -18 -40 -50 -111 -71 -158 -21 -47 -53 -118 -71 -158 -19 -41
-34 -75 -34 -77 0 -3 -14 -35 -31 -72 -17 -38 -95 -212 -174 -388 -79 -176
-154 -344 -168 -374 -28 -59 -28 -105 0 -147 20 -31 43 -44 90 -50 41 -5 15
-17 428 201 236 125 221 120 316 120 83 0 90 -2 170 -44 143 -74 289 -152 404
-214 86 -46 121 -60 160 -62 54 -3 65 1 175 61 41 22 134 71 205 109 160 84
181 96 274 152 134 81 221 123 256 123 25 0 46 -10 82 -42 71 -62 123 -82 198
-76 71 6 105 22 171 79 74 64 90 60 378 -110 54 -31 222 -122 371 -201 66 -35
130 -69 141 -77 31 -20 93 -24 131 -8 75 32 86 110 31 225 -20 41 -156 344
-302 673 -147 329 -277 616 -291 637 -26 41 -90 90 -142 108 -47 16 -152 9
-193 -13 -83 -43 -100 -64 -172 -214 -70 -146 -108 -201 -138 -201 -29 0 -68
54 -120 165 -72 155 -71 153 -106 190 -70 75 -188 103 -285 69 -82 -29 -136
-90 -188 -209 -24 -55 -58 -131 -76 -170 -17 -38 -112 -251 -210 -473 l-179
-403 -32 68 c-17 37 -129 289 -249 558 -120 270 -229 507 -241 527 -26 40 -90
88 -143 106 -62 21 -132 15 -198 -18z"/>
</g>
</svg>
